<svg xmlns="http://www.w3.org/2000/svg" width="20" height="20" viewBox="0 0 76.332 63.658">
  <g id="Group_7965" data-name="Group 7965" transform="translate(5045.755 -9193.251)">
    <path id="Rectangle_1_copy_2" data-name="Rectangle 1 copy 2"
      d="M365.281,121.156,354.724,110.6l14.211-14.211h0l3.318,10.557c1.585,4.6.8,6.434-1.508,8.747l-5.464,5.464Zm-20.986-.125,10.57-10.57L340.632,96.229,337.311,106.8c-1.587,4.6-.8,6.443,1.511,8.759l5.472,5.472Z"
      transform="translate(-5362.652 9097.022)" fill="#e8354a" fill-rule="evenodd" />
    <path id="Rectangle_1_copy_2-2" data-name="Rectangle 1 copy 2-2"
      d="M435.775,264.685l2.28-1.036,10.915,10.5-1.881,1.816-3.662,3.662a7.446,7.446,0,0,1-10.414.117l-5.527-5.527"
      transform="translate(-5445.968 8943.747)" fill="#e8354a" fill-rule="evenodd" />
    <path id="Rectangle_1_copy_2-2-2" data-name="Rectangle 1 copy 2"
      d="M620.667,446.331l13.912-5.416,7.291,18.727h0l-11-1.21c-4.847-.4-6.214-1.853-7.4-4.9l-2.8-7.2Zm8.559-19.162,5.423,13.929,18.756-7.3-8.341-7.294c-3.575-3.3-5.575-3.329-8.627-2.141l-7.211,2.808Z"
      transform="translate(-5622.829 8797.268)" fill="#e8354a" fill-rule="evenodd" />
    <path id="Rectangle_1_copy_2-2-3" data-name="Rectangle 1 copy 2-2"
      d="M600.3,475.826l.031,2.5L586.328,484.1l-.906-2.453-1.879-4.827a7.446,7.446,0,0,1,4.083-9.581l7.283-2.836"
      transform="translate(-5588.382 8759.957)" fill="#e8354a" fill-rule="evenodd" />
    <path id="Rectangle_1_copy_2-3" data-name="Rectangle 1 copy 2"
      d="M129.1,419.112l-6.007,13.667-18.4-8.087h0l8.634-6.922c3.709-3.145,5.7-3.084,8.7-1.768l7.074,3.109Zm7.5,19.6L122.912,432.7l-8.1,18.426,11.055-.741c4.865-.191,6.3-1.588,7.614-4.586l3.114-7.084Z"
      transform="translate(-5150.449 8805.046)" fill="#e8354a" fill-rule="evenodd" />
    <path id="Rectangle_1_copy_2-2-4" data-name="Rectangle 1 copy 2-2"
      d="M321.458,475.591l-1.793-1.748,5.825-13.981,2.375,1.094,4.742,2.084a7.446,7.446,0,0,1,3.888,9.662l-3.145,7.155"
      transform="translate(-5347.257 8764.11)" fill="#e8354a" fill-rule="evenodd" />
    <circle id="Ellipse_465" data-name="Ellipse 465" cx="2.023" cy="2.023" r="2.023"
      transform="translate(-5009.662 9227.296)" fill="#e8354a" />
  </g>
</svg>